<svg width="40" height="40" viewBox="0 0 40 40" fill="none" xmlns="http://www.w3.org/2000/svg">
<path d="M8 0.5H32C36.1421 0.5 39.5 3.85786 39.5 8V32C39.5 36.1421 36.1421 39.5 32 39.5H8C3.85786 39.5 0.5 36.1421 0.5 32V8C0.5 3.85786 3.85786 0.5 8 0.5Z" fill="white"></path>
<path d="M8 0.5H32C36.1421 0.5 39.5 3.85786 39.5 8V32C39.5 36.1421 36.1421 39.5 32 39.5H8C3.85786 39.5 0.5 36.1421 0.5 32V8C0.5 3.85786 3.85786 0.5 8 0.5Z" stroke="#D5D7DA"></path>
<path d="M14.1667 17.4992V24.1659M17.9167 17.4992V24.1659M22.0833 17.4992V24.1659M25.8333 17.4992V24.1659M12.5 25.4992L12.5 26.1659C12.5 26.6326 12.5 26.8659 12.5908 27.0442C12.6707 27.201 12.7982 27.3285 12.955 27.4084C13.1333 27.4992 13.3666 27.4992 13.8333 27.4992H26.1667C26.6334 27.4992 26.8667 27.4992 27.045 27.4084C27.2018 27.3285 27.3293 27.201 27.4092 27.0442C27.5 26.8659 27.5 26.6326 27.5 26.1659V25.4992C27.5 25.0325 27.5 24.7991 27.4092 24.6209C27.3293 24.4641 27.2018 24.3366 27.045 24.2567C26.8667 24.1659 26.6334 24.1659 26.1667 24.1659H13.8333C13.3666 24.1659 13.1333 24.1659 12.955 24.2567C12.7982 24.3366 12.6707 24.4641 12.5908 24.6209C12.5 24.7991 12.5 25.0325 12.5 25.4992ZM19.7108 12.5635L13.5441 13.9338C13.1715 14.0166 12.9853 14.058 12.8462 14.1582C12.7236 14.2466 12.6273 14.3666 12.5676 14.5055C12.5 14.663 12.5 14.8538 12.5 15.2354L12.5 16.1659C12.5 16.6326 12.5 16.8659 12.5908 17.0442C12.6707 17.201 12.7982 17.3285 12.955 17.4084C13.1333 17.4992 13.3666 17.4992 13.8333 17.4992H26.1667C26.6334 17.4992 26.8667 17.4992 27.045 17.4084C27.2018 17.3285 27.3293 17.201 27.4092 17.0442C27.5 16.8659 27.5 16.6326 27.5 16.1659V15.2354C27.5 14.8538 27.5 14.663 27.4324 14.5055C27.3727 14.3666 27.2764 14.2466 27.1538 14.1582C27.0147 14.058 26.8285 14.0166 26.4559 13.9338L20.2892 12.5635C20.1813 12.5395 20.1273 12.5275 20.0728 12.5227C20.0244 12.5185 19.9756 12.5185 19.9272 12.5227C19.8727 12.5275 19.8187 12.5395 19.7108 12.5635Z" stroke="#414651" stroke-width="1.66667" stroke-linecap="round" stroke-linejoin="round"></path>
</svg>