<svg width="40" height="40" viewBox="0 0 40 40" fill="none" xmlns="http://www.w3.org/2000/svg">
<rect width="40" height="40" fill="#1E1E1E"></rect>
<path d="M-6921 -2931C-6921 -2932.1 -6920.1 -2933 -6919 -2933H14882C14883.1 -2933 14884 -2932.1 14884 -2931V3145C14884 3146.1 14883.1 3147 14882 3147H-6919C-6920.1 3147 -6921 3146.1 -6921 3145V-2931Z" fill="#444444"></path>
<path d="M-6919 -2933V-2932H14882V-2933V-2934H-6919V-2933ZM14884 -2931H14883V3145H14884H14885V-2931H14884ZM14882 3147V3146H-6919V3147V3148H14882V3147ZM-6921 3145H-6920V-2931H-6921H-6922V3145H-6921ZM-6919 3147V3146C-6919.55 3146 -6920 3145.55 -6920 3145H-6921H-6922C-6922 3146.66 -6920.66 3148 -6919 3148V3147ZM14884 3145H14883C14883 3145.55 14882.6 3146 14882 3146V3147V3148C14883.7 3148 14885 3146.66 14885 3145H14884ZM14882 -2933V-2932C14882.6 -2932 14883 -2931.55 14883 -2931H14884H14885C14885 -2932.66 14883.7 -2934 14882 -2934V-2933ZM-6919 -2933V-2934C-6920.66 -2934 -6922 -2932.66 -6922 -2931H-6921H-6920C-6920 -2931.55 -6919.55 -2932 -6919 -2932V-2933Z" fill="white" fill-opacity="0.1"></path>
<g clip-path="url(#clip0_440_30850)">
<rect width="1440" height="2653" transform="translate(-531 -1084)" fill="#FAFAFA"></rect>
<rect width="1144" height="2351" transform="translate(-235 -852)" fill="#FAFAFA"></rect>
<g filter="url(#filter0_d_440_30850)">
<rect x="-23" y="-17" width="720" height="154" rx="16" fill="white"></rect>
<rect x="-22.5" y="-16.5" width="719" height="153" rx="15.5" stroke="#E9EAEB"></rect>
<mask id="path-5-inside-1_440_30850" fill="white">
<path d="M-22 -16H696V56H-22V-16Z"></path>
</mask>
<path d="M696 56V55H-22V56V57H696V56Z" fill="#E9EAEB" mask="url(#path-5-inside-1_440_30850)"></path>
<path d="M8 0.5H32C36.1421 0.5 39.5 3.85786 39.5 8V32C39.5 36.1421 36.1421 39.5 32 39.5H8C3.85786 39.5 0.5 36.1421 0.5 32V8C0.5 3.85786 3.85786 0.5 8 0.5Z" fill="white"></path>
<path d="M8 0.5H32C36.1421 0.5 39.5 3.85786 39.5 8V32C39.5 36.1421 36.1421 39.5 32 39.5H8C3.85786 39.5 0.5 36.1421 0.5 32V8C0.5 3.85786 3.85786 0.5 8 0.5Z" stroke="#D5D7DA"></path>
<path d="M14.9974 19.1673V22.5006M24.9974 17.5007V20.834M24.1641 13.334C26.2047 13.334 27.3083 13.6463 27.8575 13.8885C27.9306 13.9208 27.9672 13.9369 28.0727 14.0376C28.136 14.098 28.2515 14.2751 28.2812 14.3574C28.3307 14.4946 28.3307 14.5696 28.3307 14.7196V23.6766C28.3307 24.4339 28.3307 24.8126 28.2172 25.0072C28.1016 25.2052 27.9902 25.2972 27.774 25.3733C27.5614 25.4481 27.1324 25.3657 26.2742 25.2008C25.6735 25.0854 24.9612 25.0007 24.1641 25.0007C21.6641 25.0007 19.1641 26.6673 15.8307 26.6673C13.7901 26.6673 12.6865 26.355 12.1373 26.1128C12.0642 26.0805 12.0276 26.0644 11.9221 25.9637C11.8588 25.9033 11.7433 25.7262 11.7136 25.6439C11.6641 25.5067 11.6641 25.4317 11.6641 25.2817L11.6641 16.3247C11.6641 15.5674 11.6641 15.1887 11.7776 14.9941C11.8931 14.7961 12.0046 14.7041 12.2208 14.628C12.4333 14.5532 12.8624 14.6356 13.7206 14.8005C14.3212 14.9159 15.0336 15.0007 15.8307 15.0007C18.3307 15.0007 20.8307 13.334 24.1641 13.334ZM22.0807 20.0007C22.0807 21.1512 21.148 22.084 19.9974 22.084C18.8468 22.084 17.9141 21.1512 17.9141 20.0007C17.9141 18.8501 18.8468 17.9173 19.9974 17.9173C21.148 17.9173 22.0807 18.8501 22.0807 20.0007Z" stroke="#414651" stroke-width="1.66667" stroke-linecap="round" stroke-linejoin="round"></path>
</g>
</g>
<defs>
<filter id="filter0_d_440_30850" x="-25" y="-18" width="724" height="158" filterUnits="userSpaceOnUse" color-interpolation-filters="sRGB">
<feFlood flood-opacity="0" result="BackgroundImageFix"></feFlood>
<feColorMatrix in="SourceAlpha" type="matrix" values="0 0 0 0 0 0 0 0 0 0 0 0 0 0 0 0 0 0 127 0" result="hardAlpha"></feColorMatrix>
<feOffset dy="1"></feOffset>
<feGaussianBlur stdDeviation="1"></feGaussianBlur>
<feColorMatrix type="matrix" values="0 0 0 0 0.0392157 0 0 0 0 0.0496732 0 0 0 0 0.0705882 0 0 0 0.05 0"></feColorMatrix>
<feBlend mode="normal" in2="BackgroundImageFix" result="effect1_dropShadow_440_30850"></feBlend>
<feBlend mode="normal" in="SourceGraphic" in2="effect1_dropShadow_440_30850" result="shape"></feBlend>
</filter>
<clipPath id="clip0_440_30850">
<rect width="1440" height="2653" fill="white" transform="translate(-531 -1084)"></rect>
</clipPath>
</defs>
</svg>