<svg width="40" height="40" viewBox="0 0 40 40" fill="none" xmlns="http://www.w3.org/2000/svg">
<path d="M8 0.5H32C36.1421 0.5 39.5 3.85786 39.5 8V32C39.5 36.1421 36.1421 39.5 32 39.5H8C3.85786 39.5 0.5 36.1421 0.5 32V8C0.5 3.85786 3.85786 0.5 8 0.5Z" fill="white"></path>
<path d="M8 0.5H32C36.1421 0.5 39.5 3.85786 39.5 8V32C39.5 36.1421 36.1421 39.5 32 39.5H8C3.85786 39.5 0.5 36.1421 0.5 32V8C0.5 3.85786 3.85786 0.5 8 0.5Z" stroke="#D5D7DA"></path>
<path d="M11.6641 15.834L18.4682 20.5969C19.0191 20.9825 19.2946 21.1754 19.5943 21.2501C19.859 21.3161 20.1358 21.3161 20.4005 21.2501C20.7002 21.1754 20.9757 20.9825 21.5266 20.5969L28.3307 15.834M15.6641 26.6673H24.3307C25.7309 26.6673 26.4309 26.6673 26.9657 26.3948C27.4361 26.1552 27.8186 25.7727 28.0582 25.3023C28.3307 24.7675 28.3307 24.0674 28.3307 22.6673V17.334C28.3307 15.9339 28.3307 15.2338 28.0582 14.699C27.8186 14.2286 27.4361 13.8462 26.9657 13.6065C26.4309 13.334 25.7309 13.334 24.3307 13.334H15.6641C14.2639 13.334 13.5639 13.334 13.0291 13.6065C12.5587 13.8462 12.1762 14.2286 11.9365 14.699C11.6641 15.2338 11.6641 15.9339 11.6641 17.334V22.6673C11.6641 24.0674 11.6641 24.7675 11.9365 25.3023C12.1762 25.7727 12.5587 26.1552 13.0291 26.3948C13.5639 26.6673 14.2639 26.6673 15.6641 26.6673Z" stroke="#414651" stroke-width="1.66667" stroke-linecap="round" stroke-linejoin="round"></path>
</svg>