<svg width="40" height="40" viewBox="0 0 40 40" fill="none" xmlns="http://www.w3.org/2000/svg">
<rect width="40" height="40" fill="#1E1E1E"></rect>
<path d="M-6921 -2284C-6921 -2285.1 -6920.1 -2286 -6919 -2286H14882C14883.1 -2286 14884 -2285.1 14884 -2284V3792C14884 3793.1 14883.1 3794 14882 3794H-6919C-6920.1 3794 -6921 3793.1 -6921 3792V-2284Z" fill="#444444"></path>
<path d="M-6919 -2286V-2285H14882V-2286V-2287H-6919V-2286ZM14884 -2284H14883V3792H14884H14885V-2284H14884ZM14882 3794V3793H-6919V3794V3795H14882V3794ZM-6921 3792H-6920V-2284H-6921H-6922V3792H-6921ZM-6919 3794V3793C-6919.55 3793 -6920 3792.55 -6920 3792H-6921H-6922C-6922 3793.66 -6920.66 3795 -6919 3795V3794ZM14884 3792H14883C14883 3792.55 14882.6 3793 14882 3793V3794V3795C14883.7 3795 14885 3793.66 14885 3792H14884ZM14882 -2286V-2285C14882.6 -2285 14883 -2284.55 14883 -2284H14884H14885C14885 -2285.66 14883.7 -2287 14882 -2287V-2286ZM-6919 -2286V-2287C-6920.66 -2287 -6922 -2285.66 -6922 -2284H-6921H-6920C-6920 -2284.55 -6919.55 -2285 -6919 -2285V-2286Z" fill="white" fill-opacity="0.1"></path>
<g clip-path="url(#clip0_440_30850)">
<rect width="1440" height="2653" transform="translate(-531 -437)" fill="#FAFAFA"></rect>
<rect width="1144" height="2351" transform="translate(-235 -205)" fill="#FAFAFA"></rect>
<g filter="url(#filter0_d_440_30850)">
<rect x="-23" y="-17" width="720" height="615" rx="16" fill="white"></rect>
<rect x="-22.5" y="-16.5" width="719" height="614" rx="15.5" stroke="#E9EAEB"></rect>
<mask id="path-5-inside-1_440_30850" fill="white">
<path d="M-22 -16H696V56H-22V-16Z"></path>
</mask>
<path d="M696 56V55H-22V56V57H696V56Z" fill="#E9EAEB" mask="url(#path-5-inside-1_440_30850)"></path>
<path d="M8 0.5H32C36.1421 0.5 39.5 3.85786 39.5 8V32C39.5 36.1421 36.1421 39.5 32 39.5H8C3.85786 39.5 0.5 36.1421 0.5 32V8C0.5 3.85786 3.85786 0.5 8 0.5Z" fill="white"></path>
<path d="M8 0.5H32C36.1421 0.5 39.5 3.85786 39.5 8V32C39.5 36.1421 36.1421 39.5 32 39.5H8C3.85786 39.5 0.5 36.1421 0.5 32V8C0.5 3.85786 3.85786 0.5 8 0.5Z" stroke="#D5D7DA"></path>
<path d="M16.6641 27.5V15.8333C16.6641 15.0584 16.6641 14.6709 16.7492 14.353C16.9804 13.4902 17.6543 12.8164 18.517 12.5852C18.8349 12.5 19.2224 12.5 19.9974 12.5C20.7724 12.5 21.1599 12.5 21.4778 12.5852C22.3405 12.8164 23.0144 13.4902 23.2455 14.353C23.3307 14.6709 23.3307 15.0584 23.3307 15.8333V27.5M14.3307 27.5H25.6641C26.5975 27.5 27.0642 27.5 27.4207 27.3183C27.7343 27.1586 27.9893 26.9036 28.1491 26.59C28.3307 26.2335 28.3307 25.7668 28.3307 24.8333V18.5C28.3307 17.5666 28.3307 17.0999 28.1491 16.7433C27.9893 16.4297 27.7343 16.1748 27.4207 16.015C27.0642 15.8333 26.5975 15.8333 25.6641 15.8333H14.3307C13.3973 15.8333 12.9306 15.8333 12.5741 16.015C12.2605 16.1748 12.0055 16.4297 11.8457 16.7433C11.6641 17.0999 11.6641 17.5666 11.6641 18.5V24.8333C11.6641 25.7668 11.6641 26.2335 11.8457 26.59C12.0055 26.9036 12.2605 27.1586 12.5741 27.3183C12.9306 27.5 13.3973 27.5 14.3307 27.5Z" stroke="#414651" stroke-width="1.66667" stroke-linecap="round" stroke-linejoin="round"></path>
</g>
</g>
<defs>
<filter id="filter0_d_440_30850" x="-25" y="-18" width="724" height="619" filterUnits="userSpaceOnUse" color-interpolation-filters="sRGB">
<feFlood flood-opacity="0" result="BackgroundImageFix"></feFlood>
<feColorMatrix in="SourceAlpha" type="matrix" values="0 0 0 0 0 0 0 0 0 0 0 0 0 0 0 0 0 0 127 0" result="hardAlpha"></feColorMatrix>
<feOffset dy="1"></feOffset>
<feGaussianBlur stdDeviation="1"></feGaussianBlur>
<feColorMatrix type="matrix" values="0 0 0 0 0.0392157 0 0 0 0 0.0496732 0 0 0 0 0.0705882 0 0 0 0.05 0"></feColorMatrix>
<feBlend mode="normal" in2="BackgroundImageFix" result="effect1_dropShadow_440_30850"></feBlend>
<feBlend mode="normal" in="SourceGraphic" in2="effect1_dropShadow_440_30850" result="shape"></feBlend>
</filter>
<clipPath id="clip0_440_30850">
<rect width="1440" height="2653" fill="white" transform="translate(-531 -437)"></rect>
</clipPath>
</defs>
</svg>