<svg width="56" height="56" viewBox="0 0 56 56" fill="none" xmlns="http://www.w3.org/2000/svg">
<mask id="mask0_314_97837" style="mask-type:alpha" maskUnits="userSpaceOnUse" x="0" y="0" width="56" height="56">
<rect width="56" height="56" fill="url(#paint0_linear_314_97837)"></rect>
</mask>
<g mask="url(#mask0_314_97837)">
<circle cx="28" cy="28" r="27.5" fill="#ECFDF3" stroke="#ABEFC6"></circle>
</g>
<rect x="10" y="10" width="36" height="36" rx="18" fill="#079455"></rect>
<path d="M19.6667 23.8334L26.4708 28.5962C27.0218 28.9819 27.2973 29.1748 27.5969 29.2495C27.8616 29.3154 28.1384 29.3154 28.4031 29.2495C28.7028 29.1748 28.9783 28.9819 29.5293 28.5962L36.3334 23.8334M23.6667 34.6667H32.3334C33.7335 34.6667 34.4335 34.6667 34.9683 34.3942C35.4387 34.1545 35.8212 33.7721 36.0609 33.3017C36.3334 32.7669 36.3334 32.0668 36.3334 30.6667V25.3334C36.3334 23.9332 36.3334 23.2332 36.0609 22.6984C35.8212 22.228 35.4387 21.8455 34.9683 21.6059C34.4335 21.3334 33.7335 21.3334 32.3334 21.3334H23.6667C22.2666 21.3334 21.5665 21.3334 21.0317 21.6059C20.5613 21.8455 20.1789 22.228 19.9392 22.6984C19.6667 23.2332 19.6667 23.9332 19.6667 25.3334V30.6667C19.6667 32.0668 19.6667 32.7669 19.9392 33.3017C20.1789 33.7721 20.5613 34.1545 21.0317 34.3942C21.5665 34.6667 22.2666 34.6667 23.6667 34.6667Z" stroke="white" stroke-width="1.67" stroke-linecap="round" stroke-linejoin="round"></path>
<defs>
<linearGradient id="paint0_linear_314_97837" x1="28" y1="0" x2="28" y2="56" gradientUnits="userSpaceOnUse">
<stop></stop>
<stop offset="1" stop-opacity="0"></stop>
</linearGradient>
</defs>
</svg>