<svg width="32" height="32" viewBox="0 0 32 32" fill="none" xmlns="http://www.w3.org/2000/svg">
<path d="M8 0.5H24C28.1421 0.5 31.5 3.85786 31.5 8V24C31.5 28.1421 28.1421 31.5 24 31.5H8C3.85786 31.5 0.5 28.1421 0.5 24V8C0.5 3.85786 3.85786 0.5 8 0.5Z" fill="white"></path>
<path d="M8 0.5H24C28.1421 0.5 31.5 3.85786 31.5 8V24C31.5 28.1421 28.1421 31.5 24 31.5H8C3.85786 31.5 0.5 28.1421 0.5 24V8C0.5 3.85786 3.85786 0.5 8 0.5Z" stroke="#D5D7DA"></path>
<path d="M4 8C4 5.79086 5.79086 4 8 4H24C26.2091 4 28 5.79086 28 8V24C28 26.2091 26.2091 28 24 28H8C5.79086 28 4 26.2091 4 24V8Z" fill="white"></path>
<path d="M24 3.5C26.4853 3.5 28.5 5.51472 28.5 8V24C28.5 26.4853 26.4853 28.5 24 28.5H8C5.51472 28.5 3.5 26.4853 3.5 24V8C3.5 5.51472 5.51472 3.5 8 3.5H24Z" stroke="black" stroke-opacity="0.08"></path>
<path d="M21.6666 12.8518L16 16M16 16L10.3333 12.8518M16 16L16 22.3333M17.3333 21.9259L16.518 22.3789C16.329 22.4839 16.2344 22.5365 16.1343 22.557C16.0457 22.5753 15.9543 22.5753 15.8657 22.557C15.7656 22.5365 15.6711 22.4839 15.482 22.3789L10.5486 19.6382C10.349 19.5272 10.2491 19.4717 10.1764 19.3929C10.1121 19.3231 10.0634 19.2403 10.0337 19.1502C10 19.0484 10 18.9341 10 18.7057V13.2943C10 13.0659 10 12.9517 10.0337 12.8498C10.0634 12.7597 10.1121 12.677 10.1764 12.6072C10.2491 12.5283 10.349 12.4728 10.5486 12.3619L15.482 9.62114C15.671 9.5161 15.7656 9.46358 15.8657 9.44299C15.9543 9.42477 16.0457 9.42477 16.1343 9.44299C16.2344 9.46358 16.329 9.5161 16.518 9.62114L21.4514 12.3619C21.651 12.4728 21.7509 12.5283 21.8236 12.6072C21.8879 12.677 21.9366 12.7597 21.9663 12.8498C22 12.9517 22 13.0659 22 13.2943L22 16.3333M13 11L19 14.3333M20.6667 22V18M18.6667 20H22.6667" stroke="#2E90FA" stroke-width="1.33333" stroke-linecap="round" stroke-linejoin="round"></path>
</svg>