<svg width="64" height="64" viewBox="0 0 64 64" fill="none" xmlns="http://www.w3.org/2000/svg">
<mask id="mask0_764_123964" style="mask-type:alpha" maskUnits="userSpaceOnUse" x="0" y="0" width="64" height="64">
<rect width="64" height="64" fill="url(#paint0_linear_764_123964)"></rect>
</mask>
<g mask="url(#mask0_764_123964)">
<circle cx="32" cy="32" r="31" fill="#E6F6F0" stroke="#A6DEC9" stroke-width="2"></circle>
</g>
<rect x="8" y="8" width="48" height="48" rx="24" fill="#018F58"></rect>
<path d="M44 22.6667L29.3333 22.6667M44 41.3333L29.3333 41.3333M44 32L29.3333 32M24 22.6667C24 23.7712 23.1046 24.6667 22 24.6667C20.8954 24.6667 20 23.7712 20 22.6667C20 21.5621 20.8954 20.6667 22 20.6667C23.1046 20.6667 24 21.5621 24 22.6667ZM24 41.3333C24 42.4379 23.1046 43.3333 22 43.3333C20.8954 43.3333 20 42.4379 20 41.3333C20 40.2288 20.8954 39.3333 22 39.3333C23.1046 39.3333 24 40.2288 24 41.3333ZM24 32C24 33.1046 23.1046 34 22 34C20.8954 34 20 33.1046 20 32C20 30.8954 20.8954 30 22 30C23.1046 30 24 30.8954 24 32Z" stroke="white" stroke-width="2.66" stroke-linecap="round" stroke-linejoin="round"></path>
<defs>
<linearGradient id="paint0_linear_764_123964" x1="32" y1="0" x2="32" y2="64" gradientUnits="userSpaceOnUse">
<stop></stop>
<stop offset="1" stop-opacity="0"></stop>
</linearGradient>
</defs>
</svg>